<mxfile host="app.diagrams.net" modified="2022-12-19T00:05:36.919Z" agent="5.0 (X11; Linux x86_64) AppleWebKit/537.36 (KHTML, like Gecko) Chrome/107.0.0.0 Safari/537.36" etag="1dCL_K7Uh3PMCQty5Sls" version="20.7.4" type="github">
  <diagram id="C5RBs43oDa-KdzZeNtuy" name="Page-1">
    <mxGraphModel dx="869" dy="492" grid="1" gridSize="10" guides="1" tooltips="1" connect="1" arrows="1" fold="1" page="1" pageScale="1" pageWidth="827" pageHeight="1169" math="0" shadow="0">
      <root>
        <mxCell id="WIyWlLk6GJQsqaUBKTNV-0" />
        <mxCell id="WIyWlLk6GJQsqaUBKTNV-1" parent="WIyWlLk6GJQsqaUBKTNV-0" />
        <mxCell id="ZxvYzWwRftgfKvNXwRhA-7" value="d" style="edgeStyle=orthogonalEdgeStyle;rounded=0;orthogonalLoop=1;jettySize=auto;html=1;entryX=0.5;entryY=0;entryDx=0;entryDy=0;" edge="1" parent="WIyWlLk6GJQsqaUBKTNV-1" source="ZxvYzWwRftgfKvNXwRhA-6" target="ZxvYzWwRftgfKvNXwRhA-12">
          <mxGeometry relative="1" as="geometry">
            <mxPoint x="250.08000000000004" y="148.32000000000005" as="targetPoint" />
          </mxGeometry>
        </mxCell>
        <mxCell id="ZxvYzWwRftgfKvNXwRhA-6" value="Start" style="ellipse;whiteSpace=wrap;html=1;" vertex="1" parent="WIyWlLk6GJQsqaUBKTNV-1">
          <mxGeometry x="190" y="30" width="120" height="80" as="geometry" />
        </mxCell>
        <mxCell id="ZxvYzWwRftgfKvNXwRhA-17" style="edgeStyle=orthogonalEdgeStyle;rounded=0;orthogonalLoop=1;jettySize=auto;html=1;exitX=0.5;exitY=1;exitDx=0;exitDy=0;entryX=0.5;entryY=0;entryDx=0;entryDy=0;" edge="1" parent="WIyWlLk6GJQsqaUBKTNV-1" source="ZxvYzWwRftgfKvNXwRhA-10" target="ZxvYzWwRftgfKvNXwRhA-16">
          <mxGeometry relative="1" as="geometry" />
        </mxCell>
        <mxCell id="ZxvYzWwRftgfKvNXwRhA-10" value="While (True)" style="rhombus;whiteSpace=wrap;html=1;" vertex="1" parent="WIyWlLk6GJQsqaUBKTNV-1">
          <mxGeometry x="200" y="240" width="100" height="100" as="geometry" />
        </mxCell>
        <mxCell id="ZxvYzWwRftgfKvNXwRhA-21" style="edgeStyle=orthogonalEdgeStyle;rounded=0;orthogonalLoop=1;jettySize=auto;html=1;exitX=0.5;exitY=1;exitDx=0;exitDy=0;entryX=0.5;entryY=0;entryDx=0;entryDy=0;" edge="1" parent="WIyWlLk6GJQsqaUBKTNV-1" source="ZxvYzWwRftgfKvNXwRhA-11" target="ZxvYzWwRftgfKvNXwRhA-20">
          <mxGeometry relative="1" as="geometry" />
        </mxCell>
        <mxCell id="ZxvYzWwRftgfKvNXwRhA-11" value="cetak &quot;Menu 1. cetak luas\n2.cetak bilangan&quot;" style="shape=parallelogram;perimeter=parallelogramPerimeter;whiteSpace=wrap;html=1;fixedSize=1;" vertex="1" parent="WIyWlLk6GJQsqaUBKTNV-1">
          <mxGeometry x="160" y="500" width="180" height="60" as="geometry" />
        </mxCell>
        <mxCell id="ZxvYzWwRftgfKvNXwRhA-13" style="edgeStyle=orthogonalEdgeStyle;rounded=0;orthogonalLoop=1;jettySize=auto;html=1;exitX=0.5;exitY=1;exitDx=0;exitDy=0;entryX=0.5;entryY=0;entryDx=0;entryDy=0;" edge="1" parent="WIyWlLk6GJQsqaUBKTNV-1" source="ZxvYzWwRftgfKvNXwRhA-12" target="ZxvYzWwRftgfKvNXwRhA-10">
          <mxGeometry relative="1" as="geometry" />
        </mxCell>
        <mxCell id="ZxvYzWwRftgfKvNXwRhA-64" value="" style="edgeStyle=orthogonalEdgeStyle;rounded=0;orthogonalLoop=1;jettySize=auto;html=1;" edge="1" parent="WIyWlLk6GJQsqaUBKTNV-1" source="ZxvYzWwRftgfKvNXwRhA-12" target="ZxvYzWwRftgfKvNXwRhA-6">
          <mxGeometry relative="1" as="geometry" />
        </mxCell>
        <mxCell id="ZxvYzWwRftgfKvNXwRhA-12" value="int panjang, lebar, luas&lt;br&gt;bool keluar" style="shape=hexagon;perimeter=hexagonPerimeter2;whiteSpace=wrap;html=1;fixedSize=1;" vertex="1" parent="WIyWlLk6GJQsqaUBKTNV-1">
          <mxGeometry x="190" y="130" width="120" height="80" as="geometry" />
        </mxCell>
        <mxCell id="ZxvYzWwRftgfKvNXwRhA-18" style="edgeStyle=orthogonalEdgeStyle;rounded=0;orthogonalLoop=1;jettySize=auto;html=1;exitX=0.5;exitY=1;exitDx=0;exitDy=0;" edge="1" parent="WIyWlLk6GJQsqaUBKTNV-1" source="ZxvYzWwRftgfKvNXwRhA-16" target="ZxvYzWwRftgfKvNXwRhA-11">
          <mxGeometry relative="1" as="geometry" />
        </mxCell>
        <mxCell id="ZxvYzWwRftgfKvNXwRhA-16" value="int input" style="shape=hexagon;perimeter=hexagonPerimeter2;whiteSpace=wrap;html=1;fixedSize=1;" vertex="1" parent="WIyWlLk6GJQsqaUBKTNV-1">
          <mxGeometry x="190" y="380" width="120" height="80" as="geometry" />
        </mxCell>
        <mxCell id="ZxvYzWwRftgfKvNXwRhA-23" style="edgeStyle=orthogonalEdgeStyle;rounded=0;orthogonalLoop=1;jettySize=auto;html=1;exitX=0.5;exitY=1;exitDx=0;exitDy=0;" edge="1" parent="WIyWlLk6GJQsqaUBKTNV-1" source="ZxvYzWwRftgfKvNXwRhA-20" target="ZxvYzWwRftgfKvNXwRhA-22">
          <mxGeometry relative="1" as="geometry" />
        </mxCell>
        <mxCell id="ZxvYzWwRftgfKvNXwRhA-20" value="input input" style="shape=parallelogram;perimeter=parallelogramPerimeter;whiteSpace=wrap;html=1;fixedSize=1;" vertex="1" parent="WIyWlLk6GJQsqaUBKTNV-1">
          <mxGeometry x="160" y="600" width="180" height="60" as="geometry" />
        </mxCell>
        <mxCell id="ZxvYzWwRftgfKvNXwRhA-24" style="edgeStyle=orthogonalEdgeStyle;rounded=0;orthogonalLoop=1;jettySize=auto;html=1;exitX=1;exitY=0.5;exitDx=0;exitDy=0;entryX=0.5;entryY=1;entryDx=0;entryDy=0;" edge="1" parent="WIyWlLk6GJQsqaUBKTNV-1" source="ZxvYzWwRftgfKvNXwRhA-22" target="ZxvYzWwRftgfKvNXwRhA-25">
          <mxGeometry relative="1" as="geometry">
            <mxPoint x="400" y="210" as="targetPoint" />
          </mxGeometry>
        </mxCell>
        <mxCell id="ZxvYzWwRftgfKvNXwRhA-35" style="edgeStyle=orthogonalEdgeStyle;rounded=0;orthogonalLoop=1;jettySize=auto;html=1;exitX=0.5;exitY=1;exitDx=0;exitDy=0;" edge="1" parent="WIyWlLk6GJQsqaUBKTNV-1" source="ZxvYzWwRftgfKvNXwRhA-22" target="ZxvYzWwRftgfKvNXwRhA-34">
          <mxGeometry relative="1" as="geometry" />
        </mxCell>
        <mxCell id="ZxvYzWwRftgfKvNXwRhA-22" value="input == 1" style="rhombus;whiteSpace=wrap;html=1;" vertex="1" parent="WIyWlLk6GJQsqaUBKTNV-1">
          <mxGeometry x="210" y="700" width="80" height="80" as="geometry" />
        </mxCell>
        <mxCell id="ZxvYzWwRftgfKvNXwRhA-26" style="edgeStyle=orthogonalEdgeStyle;rounded=0;orthogonalLoop=1;jettySize=auto;html=1;entryX=0.5;entryY=1;entryDx=0;entryDy=0;" edge="1" parent="WIyWlLk6GJQsqaUBKTNV-1" source="ZxvYzWwRftgfKvNXwRhA-25" target="ZxvYzWwRftgfKvNXwRhA-27">
          <mxGeometry relative="1" as="geometry">
            <mxPoint x="460" y="560" as="targetPoint" />
          </mxGeometry>
        </mxCell>
        <mxCell id="ZxvYzWwRftgfKvNXwRhA-25" value="Cetak &lt;br&gt;&quot;Masukan Panjang Dan lebar&quot;" style="shape=parallelogram;perimeter=parallelogramPerimeter;whiteSpace=wrap;html=1;fixedSize=1;" vertex="1" parent="WIyWlLk6GJQsqaUBKTNV-1">
          <mxGeometry x="370" y="600" width="180" height="60" as="geometry" />
        </mxCell>
        <mxCell id="ZxvYzWwRftgfKvNXwRhA-29" style="edgeStyle=orthogonalEdgeStyle;rounded=0;orthogonalLoop=1;jettySize=auto;html=1;exitX=0.5;exitY=0;exitDx=0;exitDy=0;entryX=0.5;entryY=1;entryDx=0;entryDy=0;" edge="1" parent="WIyWlLk6GJQsqaUBKTNV-1" source="ZxvYzWwRftgfKvNXwRhA-27" target="ZxvYzWwRftgfKvNXwRhA-30">
          <mxGeometry relative="1" as="geometry">
            <mxPoint x="459.5" y="470" as="targetPoint" />
          </mxGeometry>
        </mxCell>
        <mxCell id="ZxvYzWwRftgfKvNXwRhA-27" value="input panjang, lebar" style="shape=parallelogram;perimeter=parallelogramPerimeter;whiteSpace=wrap;html=1;fixedSize=1;" vertex="1" parent="WIyWlLk6GJQsqaUBKTNV-1">
          <mxGeometry x="370" y="500" width="180" height="60" as="geometry" />
        </mxCell>
        <mxCell id="ZxvYzWwRftgfKvNXwRhA-32" style="edgeStyle=orthogonalEdgeStyle;rounded=0;orthogonalLoop=1;jettySize=auto;html=1;entryX=0.5;entryY=1;entryDx=0;entryDy=0;" edge="1" parent="WIyWlLk6GJQsqaUBKTNV-1" source="ZxvYzWwRftgfKvNXwRhA-30" target="ZxvYzWwRftgfKvNXwRhA-31">
          <mxGeometry relative="1" as="geometry" />
        </mxCell>
        <mxCell id="ZxvYzWwRftgfKvNXwRhA-30" value="luas = panjang * lebar" style="rounded=0;whiteSpace=wrap;html=1;" vertex="1" parent="WIyWlLk6GJQsqaUBKTNV-1">
          <mxGeometry x="400" y="390" width="120" height="60" as="geometry" />
        </mxCell>
        <mxCell id="ZxvYzWwRftgfKvNXwRhA-33" style="edgeStyle=orthogonalEdgeStyle;rounded=0;orthogonalLoop=1;jettySize=auto;html=1;entryX=1;entryY=0.5;entryDx=0;entryDy=0;" edge="1" parent="WIyWlLk6GJQsqaUBKTNV-1" source="ZxvYzWwRftgfKvNXwRhA-31" target="ZxvYzWwRftgfKvNXwRhA-10">
          <mxGeometry relative="1" as="geometry" />
        </mxCell>
        <mxCell id="ZxvYzWwRftgfKvNXwRhA-31" value="cetak &quot;Luas Persegi Panjang adalah&quot;, luas" style="shape=parallelogram;perimeter=parallelogramPerimeter;whiteSpace=wrap;html=1;fixedSize=1;" vertex="1" parent="WIyWlLk6GJQsqaUBKTNV-1">
          <mxGeometry x="370" y="260" width="180" height="60" as="geometry" />
        </mxCell>
        <mxCell id="ZxvYzWwRftgfKvNXwRhA-36" style="edgeStyle=orthogonalEdgeStyle;rounded=0;orthogonalLoop=1;jettySize=auto;html=1;exitX=1;exitY=0.5;exitDx=0;exitDy=0;entryX=0;entryY=0.5;entryDx=0;entryDy=0;" edge="1" parent="WIyWlLk6GJQsqaUBKTNV-1" source="ZxvYzWwRftgfKvNXwRhA-34" target="ZxvYzWwRftgfKvNXwRhA-37">
          <mxGeometry relative="1" as="geometry">
            <mxPoint x="370" y="850.6666666666667" as="targetPoint" />
          </mxGeometry>
        </mxCell>
        <mxCell id="ZxvYzWwRftgfKvNXwRhA-39" style="edgeStyle=orthogonalEdgeStyle;rounded=0;orthogonalLoop=1;jettySize=auto;html=1;entryX=0.5;entryY=0;entryDx=0;entryDy=0;" edge="1" parent="WIyWlLk6GJQsqaUBKTNV-1" source="ZxvYzWwRftgfKvNXwRhA-34" target="ZxvYzWwRftgfKvNXwRhA-38">
          <mxGeometry relative="1" as="geometry" />
        </mxCell>
        <mxCell id="ZxvYzWwRftgfKvNXwRhA-34" value="input == 2" style="rhombus;whiteSpace=wrap;html=1;" vertex="1" parent="WIyWlLk6GJQsqaUBKTNV-1">
          <mxGeometry x="210" y="810" width="80" height="80" as="geometry" />
        </mxCell>
        <mxCell id="ZxvYzWwRftgfKvNXwRhA-48" style="edgeStyle=orthogonalEdgeStyle;rounded=0;orthogonalLoop=1;jettySize=auto;html=1;exitX=1;exitY=0.5;exitDx=0;exitDy=0;entryX=0;entryY=0.5;entryDx=0;entryDy=0;" edge="1" parent="WIyWlLk6GJQsqaUBKTNV-1" source="ZxvYzWwRftgfKvNXwRhA-37" target="ZxvYzWwRftgfKvNXwRhA-47">
          <mxGeometry relative="1" as="geometry" />
        </mxCell>
        <mxCell id="ZxvYzWwRftgfKvNXwRhA-37" value="Cetak &lt;br&gt;&quot;Masukan sebuah bilangan&quot;" style="shape=parallelogram;perimeter=parallelogramPerimeter;whiteSpace=wrap;html=1;fixedSize=1;" vertex="1" parent="WIyWlLk6GJQsqaUBKTNV-1">
          <mxGeometry x="340" y="820" width="180" height="60" as="geometry" />
        </mxCell>
        <mxCell id="ZxvYzWwRftgfKvNXwRhA-42" style="edgeStyle=orthogonalEdgeStyle;rounded=0;orthogonalLoop=1;jettySize=auto;html=1;exitX=0.5;exitY=1;exitDx=0;exitDy=0;" edge="1" parent="WIyWlLk6GJQsqaUBKTNV-1" source="ZxvYzWwRftgfKvNXwRhA-38" target="ZxvYzWwRftgfKvNXwRhA-41">
          <mxGeometry relative="1" as="geometry" />
        </mxCell>
        <mxCell id="ZxvYzWwRftgfKvNXwRhA-38" value="input != 1 || &lt;br&gt;input != 2" style="rhombus;whiteSpace=wrap;html=1;" vertex="1" parent="WIyWlLk6GJQsqaUBKTNV-1">
          <mxGeometry x="210" y="930" width="80" height="80" as="geometry" />
        </mxCell>
        <mxCell id="ZxvYzWwRftgfKvNXwRhA-45" style="edgeStyle=orthogonalEdgeStyle;rounded=0;orthogonalLoop=1;jettySize=auto;html=1;exitX=0.5;exitY=1;exitDx=0;exitDy=0;" edge="1" parent="WIyWlLk6GJQsqaUBKTNV-1" source="ZxvYzWwRftgfKvNXwRhA-41" target="ZxvYzWwRftgfKvNXwRhA-44">
          <mxGeometry relative="1" as="geometry" />
        </mxCell>
        <mxCell id="ZxvYzWwRftgfKvNXwRhA-41" value="Cetak &lt;br&gt;&quot;Angka yang anda masukan salah&quot;&lt;br&gt;&quot;keluar dari program&quot;" style="shape=parallelogram;perimeter=parallelogramPerimeter;whiteSpace=wrap;html=1;fixedSize=1;" vertex="1" parent="WIyWlLk6GJQsqaUBKTNV-1">
          <mxGeometry x="160" y="1050" width="180" height="60" as="geometry" />
        </mxCell>
        <mxCell id="ZxvYzWwRftgfKvNXwRhA-44" value="end" style="ellipse;whiteSpace=wrap;html=1;" vertex="1" parent="WIyWlLk6GJQsqaUBKTNV-1">
          <mxGeometry x="190" y="1190" width="120" height="80" as="geometry" />
        </mxCell>
        <mxCell id="ZxvYzWwRftgfKvNXwRhA-53" style="edgeStyle=orthogonalEdgeStyle;rounded=0;orthogonalLoop=1;jettySize=auto;html=1;exitX=0.5;exitY=0;exitDx=0;exitDy=0;entryX=0.5;entryY=1;entryDx=0;entryDy=0;" edge="1" parent="WIyWlLk6GJQsqaUBKTNV-1" source="ZxvYzWwRftgfKvNXwRhA-47" target="ZxvYzWwRftgfKvNXwRhA-51">
          <mxGeometry relative="1" as="geometry" />
        </mxCell>
        <mxCell id="ZxvYzWwRftgfKvNXwRhA-47" value="input input" style="shape=parallelogram;perimeter=parallelogramPerimeter;whiteSpace=wrap;html=1;fixedSize=1;" vertex="1" parent="WIyWlLk6GJQsqaUBKTNV-1">
          <mxGeometry x="570" y="820" width="120" height="60" as="geometry" />
        </mxCell>
        <mxCell id="ZxvYzWwRftgfKvNXwRhA-54" style="edgeStyle=orthogonalEdgeStyle;rounded=0;orthogonalLoop=1;jettySize=auto;html=1;entryX=0;entryY=0.5;entryDx=0;entryDy=0;" edge="1" parent="WIyWlLk6GJQsqaUBKTNV-1" source="ZxvYzWwRftgfKvNXwRhA-51" target="ZxvYzWwRftgfKvNXwRhA-55">
          <mxGeometry relative="1" as="geometry">
            <mxPoint x="720" y="739.9999999999998" as="targetPoint" />
          </mxGeometry>
        </mxCell>
        <mxCell id="ZxvYzWwRftgfKvNXwRhA-60" style="edgeStyle=orthogonalEdgeStyle;rounded=0;orthogonalLoop=1;jettySize=auto;html=1;entryX=0.5;entryY=1;entryDx=0;entryDy=0;" edge="1" parent="WIyWlLk6GJQsqaUBKTNV-1" source="ZxvYzWwRftgfKvNXwRhA-51" target="ZxvYzWwRftgfKvNXwRhA-58">
          <mxGeometry relative="1" as="geometry" />
        </mxCell>
        <mxCell id="ZxvYzWwRftgfKvNXwRhA-51" value="input == 2" style="rhombus;whiteSpace=wrap;html=1;" vertex="1" parent="WIyWlLk6GJQsqaUBKTNV-1">
          <mxGeometry x="590" y="700" width="80" height="80" as="geometry" />
        </mxCell>
        <mxCell id="ZxvYzWwRftgfKvNXwRhA-57" style="edgeStyle=orthogonalEdgeStyle;rounded=0;orthogonalLoop=1;jettySize=auto;html=1;entryX=1;entryY=0.5;entryDx=0;entryDy=0;" edge="1" parent="WIyWlLk6GJQsqaUBKTNV-1" source="ZxvYzWwRftgfKvNXwRhA-55" target="ZxvYzWwRftgfKvNXwRhA-10">
          <mxGeometry relative="1" as="geometry">
            <Array as="points">
              <mxPoint x="767" y="230" />
              <mxPoint x="340" y="230" />
              <mxPoint x="340" y="290" />
            </Array>
          </mxGeometry>
        </mxCell>
        <mxCell id="ZxvYzWwRftgfKvNXwRhA-55" value="cetak angka 1, 2, .. 50" style="shape=parallelogram;perimeter=parallelogramPerimeter;whiteSpace=wrap;html=1;fixedSize=1;" vertex="1" parent="WIyWlLk6GJQsqaUBKTNV-1">
          <mxGeometry x="707" y="710" width="120" height="60" as="geometry" />
        </mxCell>
        <mxCell id="ZxvYzWwRftgfKvNXwRhA-62" style="edgeStyle=orthogonalEdgeStyle;rounded=0;orthogonalLoop=1;jettySize=auto;html=1;entryX=0.5;entryY=1;entryDx=0;entryDy=0;" edge="1" parent="WIyWlLk6GJQsqaUBKTNV-1" source="ZxvYzWwRftgfKvNXwRhA-58" target="ZxvYzWwRftgfKvNXwRhA-61">
          <mxGeometry relative="1" as="geometry" />
        </mxCell>
        <mxCell id="ZxvYzWwRftgfKvNXwRhA-58" value="input == 1" style="rhombus;whiteSpace=wrap;html=1;" vertex="1" parent="WIyWlLk6GJQsqaUBKTNV-1">
          <mxGeometry x="590" y="580" width="80" height="80" as="geometry" />
        </mxCell>
        <mxCell id="ZxvYzWwRftgfKvNXwRhA-63" style="edgeStyle=orthogonalEdgeStyle;rounded=0;orthogonalLoop=1;jettySize=auto;html=1;" edge="1" parent="WIyWlLk6GJQsqaUBKTNV-1" source="ZxvYzWwRftgfKvNXwRhA-61">
          <mxGeometry relative="1" as="geometry">
            <mxPoint x="293.6842105263158" y="290" as="targetPoint" />
            <Array as="points">
              <mxPoint x="630" y="230" />
              <mxPoint x="340" y="230" />
              <mxPoint x="340" y="290" />
            </Array>
          </mxGeometry>
        </mxCell>
        <mxCell id="ZxvYzWwRftgfKvNXwRhA-61" value="cetak piramid dengan bilangan bulat" style="shape=parallelogram;perimeter=parallelogramPerimeter;whiteSpace=wrap;html=1;fixedSize=1;" vertex="1" parent="WIyWlLk6GJQsqaUBKTNV-1">
          <mxGeometry x="570" y="470" width="120" height="60" as="geometry" />
        </mxCell>
      </root>
    </mxGraphModel>
  </diagram>
</mxfile>
